<?xml version="1.0" standalone="no"?>
<!DOCTYPE svg PUBLIC "-//W3C//DTD SVG 20010904//EN"
 "http://www.w3.org/TR/2001/REC-SVG-20010904/DTD/svg10.dtd">
<svg version="1.0" xmlns="http://www.w3.org/2000/svg"
 width="512.000000pt" height="512.000000pt" viewBox="0 0 512.000000 512.000000"
 preserveAspectRatio="xMidYMid meet">
<metadata>
Created by potrace 1.14, written by Peter Selinger 2001-2017
</metadata>
<g transform="translate(0.000000,512.000000) scale(0.100000,-0.100000)"
fill="#000000" stroke="none">
<path d="M2360 5090 c0 -12 4 -18 10 -15 6 4 17 1 25 -5 12 -10 15 -48 15
-202 l0 -189 -30 -17 c-16 -9 -30 -24 -30 -32 0 -13 21 -14 147 -10 132 4 152
7 185 28 160 100 179 337 33 427 -47 29 -51 30 -202 33 -150 3 -153 3 -153
-18z m291 -54 c59 -39 74 -76 74 -176 -1 -96 -16 -135 -66 -171 -43 -30 -120
-37 -155 -14 l-27 17 6 180 c4 98 9 184 13 190 12 19 112 2 155 -26z"/>
<path d="M3456 4944 c-4 -9 3 -23 14 -32 21 -17 20 -18 -51 -182 -39 -91 -76
-170 -81 -177 -5 -6 -24 -13 -41 -15 -33 -3 -54 -38 -23 -38 14 0 91 -32 248
-103 l57 -26 35 57 c19 31 32 60 30 64 -10 16 -37 7 -56 -17 -25 -32 -66 -33
-135 0 -29 13 -53 27 -53 30 0 3 14 39 32 80 20 47 38 75 48 75 8 0 43 -13 77
-29 l62 -30 15 24 c15 22 14 24 -7 30 -42 13 -138 58 -135 64 43 92 71 141 79
141 5 0 36 -14 69 -30 61 -31 69 -44 49 -82 -9 -16 -8 -23 2 -29 22 -14 26
-12 61 44 42 66 42 67 27 67 -12 0 -165 61 -261 103 -48 22 -57 24 -62 11z"/>
<path d="M1526 4897 l-28 -23 12 -227 c11 -197 11 -230 -2 -245 -8 -9 -13 -24
-11 -33 3 -14 15 -12 81 17 42 19 83 34 90 34 14 0 15 9 4 27 -6 10 -15 10
-41 0 -29 -11 -34 -10 -47 7 -8 11 -14 41 -14 67 l0 46 71 32 c39 18 72 31 73
29 1 -2 16 -20 34 -41 38 -45 40 -69 8 -86 -15 -9 -22 -19 -19 -31 4 -16 13
-14 88 21 46 21 88 39 94 39 6 0 11 9 11 20 0 16 -7 20 -33 20 -42 0 -45 3
-270 279 -32 39 -61 71 -65 71 -4 0 -20 -10 -36 -23z m94 -153 c34 -41 61 -77
59 -79 -9 -9 -111 -56 -114 -53 -7 6 -18 208 -12 208 3 0 34 -34 67 -76z"/>
<path d="M4321 4401 c-12 -8 -12 -12 2 -26 10 -9 14 -22 10 -29 -14 -22 -248
-242 -271 -255 -16 -8 -27 -9 -42 -1 -11 6 -26 7 -34 3 -10 -6 19 -42 109
-136 l123 -128 53 37 c30 21 56 40 59 42 3 2 -4 10 -14 17 -16 12 -22 12 -40
0 -36 -26 -65 -18 -118 33 -61 58 -60 68 18 136 l56 49 58 -58 c54 -53 60 -56
79 -43 19 14 18 16 -39 73 -33 32 -60 61 -59 64 0 10 116 101 127 101 12 0 92
-94 92 -108 0 -5 -9 -21 -20 -35 -17 -22 -18 -26 -5 -37 14 -12 46 4 114 57 4
3 -227 245 -239 250 -3 2 -11 -1 -19 -6z"/>
<path d="M745 4351 c-52 -24 -209 -193 -193 -209 8 -8 17 -6 33 4 22 14 28 10
158 -108 133 -120 160 -155 139 -181 -7 -8 -7 -17 1 -28 11 -14 20 -7 74 51
54 59 61 69 47 80 -11 10 -18 10 -26 2 -7 -7 -17 -12 -24 -12 -13 0 -114 88
-114 98 1 4 9 17 19 29 l18 22 89 -25 c121 -33 148 -32 185 8 45 49 37 78 -13
52 -28 -14 -39 -14 -130 2 l-100 17 7 44 c8 54 -7 102 -43 135 -38 36 -78 42
-127 19z m84 -85 c51 -46 51 -114 0 -155 l-31 -24 -69 69 -69 68 23 24 c28 31
76 53 102 45 11 -3 31 -15 44 -27z"/>
<path d="M2433 4070 c-363 -51 -699 -307 -874 -665 -89 -183 -135 -364 -154
-611 l-7 -80 75 7 c126 12 213 62 274 156 49 77 78 168 124 393 21 107 53 236
69 285 71 215 192 336 391 391 92 26 367 26 459 0 189 -52 318 -178 386 -378
13 -40 45 -171 70 -291 60 -293 100 -396 181 -467 56 -50 133 -81 219 -89 l76
-7 -7 85 c-32 412 -170 732 -418 968 -202 192 -441 297 -697 308 -58 2 -133 0
-167 -5z"/>
<path d="M215 3551 c-17 -10 -38 -29 -46 -42 -24 -36 -92 -237 -84 -249 10
-16 23 -12 30 10 3 11 14 20 23 20 9 -1 94 -29 187 -63 166 -61 170 -63 181
-97 6 -19 15 -35 20 -37 5 -2 23 39 40 91 26 79 29 96 17 100 -21 8 -20 9 -27
-18 -8 -34 -28 -38 -88 -17 -49 17 -53 20 -50 47 2 16 4 61 5 100 2 64 -1 74
-27 108 -48 63 -123 83 -181 47z m109 -75 c63 -26 82 -85 50 -149 -9 -18 -18
-33 -19 -35 -3 -3 -184 74 -192 82 -9 9 9 47 39 82 34 38 66 43 122 20z"/>
<path d="M4904 3547 c3 -15 1 -29 -8 -36 -15 -12 -329 -131 -348 -131 -6 0
-21 9 -33 20 -11 11 -25 16 -33 12 -9 -6 -2 -31 24 -99 30 -74 40 -90 55 -86
15 4 16 9 7 28 -6 13 -8 30 -5 38 6 17 114 60 127 52 5 -3 11 -19 15 -36 10
-44 82 -115 130 -128 88 -23 173 28 182 110 4 36 -3 66 -40 159 -30 79 -50
116 -62 118 -14 3 -16 -1 -11 -21z m46 -143 c6 -14 10 -43 10 -64 0 -30 -6
-43 -30 -64 -69 -57 -160 -39 -181 36 -5 22 -9 44 -6 51 3 11 149 65 180 66
10 1 22 -10 27 -25z"/>
<path d="M2085 2853 c-118 -25 -215 -102 -215 -170 0 -18 6 -23 25 -23 18 0
25 5 25 19 0 31 46 77 102 101 36 16 80 25 137 28 106 6 182 -11 226 -49 33
-29 65 -31 65 -4 0 24 -71 73 -129 89 -53 15 -186 20 -236 9z"/>
<path d="M2792 2843 c-57 -19 -122 -66 -122 -87 0 -26 33 -27 59 -2 91 86 365
70 446 -26 14 -16 25 -38 25 -49 0 -14 7 -19 25 -19 19 0 25 5 25 23 0 53 -64
118 -150 152 -66 26 -238 31 -308 8z"/>
<path d="M167 2679 c-82 -43 -118 -153 -79 -241 30 -68 80 -101 158 -106 55
-4 69 -1 109 22 122 72 118 264 -8 325 -55 27 -129 27 -180 0z"/>
<path d="M4772 2679 c-91 -45 -124 -167 -70 -260 34 -58 89 -89 157 -89 119 0
201 91 188 206 -14 130 -154 202 -275 143z"/>
<path d="M2143 2666 c-49 -16 -124 -58 -143 -80 -11 -14 0 -16 106 -17 66 0
144 -4 174 -8 30 -5 61 -6 68 -3 20 7 6 62 -23 91 -30 30 -117 38 -182 17z"/>
<path d="M2813 2661 c-48 -30 -61 -109 -18 -103 11 1 91 5 178 9 l158 6 -21
22 c-35 37 -138 78 -205 82 -47 3 -67 0 -92 -16z"/>
<path d="M1403 2490 c7 -192 25 -330 57 -431 29 -95 171 -374 236 -466 73
-103 132 -162 229 -233 44 -32 97 -81 118 -109 66 -86 180 -157 304 -188 94
-23 332 -23 426 0 125 31 236 101 306 191 24 30 68 76 99 101 114 93 205 192
278 300 84 127 185 331 209 424 25 96 43 257 50 431 l6 155 -34 -100 c-74
-216 -135 -345 -230 -483 -87 -127 -192 -203 -299 -218 -59 -8 -104 7 -186 64
-37 25 -90 56 -119 69 l-52 24 16 27 c12 22 13 34 4 68 -14 52 -46 94 -72 94
-30 0 -36 -30 -10 -49 29 -22 39 -82 17 -100 -19 -16 -333 -23 -373 -9 -33 11
-32 71 2 102 29 27 32 51 9 60 -10 4 -28 -6 -50 -28 -29 -29 -34 -41 -34 -81
0 -25 4 -55 10 -65 9 -16 3 -22 -44 -43 -30 -14 -83 -44 -118 -68 -110 -75
-171 -86 -255 -43 -63 31 -159 130 -231 239 -63 95 -164 291 -221 430 -23 54
-44 102 -48 105 -3 3 -3 -74 0 -170z m1266 -620 c388 -40 385 -213 -5 -250
-152 -14 -357 10 -437 51 -166 86 -5 192 314 208 15 0 72 -4 128 -9z"/>
<path d="M596 1931 c7 -33 20 -26 -228 -112 l-127 -44 -23 22 c-14 13 -28 19
-36 15 -9 -6 -4 -30 20 -95 24 -69 35 -87 51 -87 14 0 17 4 12 18 -20 47 -18
52 28 72 75 33 88 31 104 -18 42 -123 187 -170 270 -87 28 28 33 40 33 81 0
68 -69 264 -92 264 -14 0 -16 -6 -12 -29z m44 -137 c23 -59 4 -115 -45 -139
-50 -23 -101 -19 -130 9 -22 23 -44 91 -32 103 8 7 158 51 180 52 10 1 22 -10
27 -25z"/>
<path d="M4416 1759 c-4 -23 -3 -45 1 -49 130 -110 323 -296 331 -320 6 -16
15 -30 19 -30 4 0 23 39 42 86 28 69 32 87 21 94 -9 6 -18 -1 -29 -23 -21 -43
-38 -43 -86 -2 l-40 34 26 73 25 73 45 -3 c74 -5 81 -10 77 -48 -3 -23 1 -35
10 -39 8 -3 16 -4 16 -3 1 2 17 43 35 92 24 63 30 91 22 99 -8 8 -17 5 -31
-11 -15 -16 -32 -22 -63 -22 -39 0 -265 22 -368 35 l-46 6 -7 -42z m247 -56
c20 -5 18 -27 -9 -91 l-14 -34 -72 62 c-40 35 -75 67 -77 73 -3 9 132 2 172
-10z"/>
<path d="M4189 1332 l-46 -56 57 -100 c93 -165 121 -218 117 -223 -2 -2 -79
30 -171 71 l-166 75 -48 -51 c-64 -69 -63 -80 9 -63 22 6 34 -3 85 -58 137
-145 186 -209 181 -233 -10 -52 11 -50 62 6 36 41 46 58 39 68 -9 10 -15 9
-30 -5 -19 -17 -23 -14 -135 100 -63 65 -113 121 -110 123 3 3 87 -29 187 -71
120 -51 185 -74 191 -68 7 7 -22 71 -86 188 -53 98 -94 179 -91 182 2 2 42
-26 87 -62 175 -138 171 -134 164 -165 -11 -48 10 -42 64 19 34 40 49 65 45
76 -6 14 -8 14 -25 -1 -15 -13 -24 -15 -42 -7 -35 17 -277 212 -284 230 -3 8
-1 25 6 36 10 16 10 22 -1 32 -11 10 -21 3 -59 -43z"/>
<path d="M697 1277 c-165 -49 -211 -59 -225 -50 -12 7 -24 8 -34 2 -14 -8 -8
-20 39 -84 31 -41 60 -75 64 -75 17 0 20 22 5 39 -33 36 -18 61 51 81 47 14
48 14 109 -72 l27 -38 -34 -45 c-38 -50 -50 -54 -80 -24 -16 16 -23 18 -34 9
-12 -10 -6 -22 33 -69 26 -31 54 -67 63 -80 21 -34 41 -19 33 24 -5 30 3 44
92 161 53 71 115 151 137 177 l40 48 -29 30 c-15 16 -33 29 -38 28 -6 -1 -104
-29 -219 -62z m183 -4 c0 -12 -111 -148 -120 -148 -13 0 -71 77 -67 89 2 6 41
23 88 37 97 31 99 32 99 22z"/>
<path d="M1221 976 c-9 -10 -8 -16 4 -26 8 -7 15 -17 15 -22 0 -10 -184 -251
-216 -283 -11 -11 -28 -15 -46 -13 -59 9 -48 -16 35 -80 45 -34 101 -78 125
-98 l42 -37 59 57 c55 51 58 57 40 66 -15 9 -26 6 -53 -15 -18 -14 -42 -25
-53 -25 -25 0 -103 56 -103 74 0 20 66 105 209 269 20 22 32 27 59 25 50 -4
48 12 -6 49 -26 18 -59 41 -73 53 -22 16 -29 18 -38 6z"/>
<path d="M3536 756 l-30 -23 34 -222 c27 -178 32 -226 22 -241 -11 -18 -6 -54
7 -48 3 2 41 22 83 46 53 30 75 48 71 58 -6 18 -7 17 -45 -2 -40 -21 -56 -5
-64 62 l-6 49 66 38 66 39 31 -29 c49 -45 54 -61 29 -88 -13 -13 -20 -31 -17
-39 5 -12 23 -4 89 35 90 54 110 87 50 81 -35 -4 -68 24 -265 226 -44 45 -83
82 -86 82 -3 0 -19 -11 -35 -24z m108 -145 l69 -69 -54 -31 c-30 -17 -57 -31
-60 -31 -3 0 -11 30 -17 68 -6 37 -14 82 -18 100 -4 17 -2 32 3 32 4 0 39 -31
77 -69z"/>
<path d="M1667 676 c-4 -9 2 -17 14 -21 10 -4 19 -14 19 -23 0 -20 -113 -295
-135 -329 -9 -13 -25 -23 -39 -23 -13 0 -27 -7 -30 -16 -8 -22 -9 -21 23 -27
16 -3 81 -29 145 -58 64 -28 118 -50 119 -48 15 20 77 132 75 134 -14 14 -39
3 -71 -29 -31 -32 -42 -37 -64 -31 -55 13 -93 34 -93 51 0 17 74 192 121 287
26 49 33 57 58 57 16 0 31 6 34 14 4 9 -20 23 -77 45 -96 36 -92 35 -99 17z"/>
<path d="M2962 543 c-150 -45 -219 -213 -149 -366 47 -102 139 -143 257 -113
36 9 81 25 100 34 30 14 35 21 32 47 -2 21 -7 159 -7 185 0 0 -35 -7 -78 -15
-43 -8 -80 -15 -82 -15 -2 0 -1 -9 2 -20 5 -17 11 -19 37 -14 41 7 53 -7 62
-73 6 -49 5 -52 -23 -66 -86 -45 -168 -19 -215 68 -53 97 -49 208 8 261 46 44
133 64 170 39 14 -9 27 -29 31 -45 6 -30 11 -34 35 -25 9 4 12 23 10 70 l-4
65 -66 -1 c-37 0 -91 -8 -120 -16z"/>
<path d="M2185 522 c-12 -12 -3 -32 14 -32 10 0 21 -6 24 -14 5 -12 -26 -302
-39 -355 -3 -14 -17 -28 -34 -34 -48 -18 -38 -42 18 -44 26 -2 100 -10 165
-19 65 -9 119 -15 121 -13 2 2 12 32 24 67 l21 62 -23 0 c-17 0 -27 -9 -36
-31 -17 -39 -50 -52 -117 -43 -71 9 -77 18 -64 103 6 38 11 73 11 77 0 4 36 4
80 1 77 -6 81 -5 89 16 8 21 6 22 -71 29 -44 4 -82 9 -85 11 -2 3 2 38 9 78
l13 74 50 3 c68 3 100 -15 100 -56 0 -18 3 -32 7 -32 3 0 13 -2 20 -5 10 -4
18 8 25 42 7 26 14 55 18 64 5 14 -11 18 -114 28 -67 7 -143 16 -171 20 -27 4
-52 6 -55 3z"/>
</g>
</svg>
